GIL06_free_grf.mot																		
version=4																		
nRows=61																		
nColumns=19																		
inDegrees=yes																		
endheader																		
																		
time	     ground_force_vx	     ground_force_vy	     ground_force_vz	     ground_force_px	     ground_force_py	     ground_force_pz	     1_ground_force_vx	     1_ground_force_vy	     1_ground_force_vz	     1_ground_force_px	     1_ground_force_py	     1_ground_force_pz	     ground_torque_x	     ground_torque_y	     ground_torque_z	     1_ground_torque_x	    1_ground_torque_y	     1_ground_torque_z
0.12499995	0	0	0	0.59647498	0	0.06294209	-112.9923434	743.6797493	14.25483905	0.20058714	0	-0.06304015	0	0	0	0	2.06360962	0
0.13333328	0	0	0	0.59820398	0	0.06251034	-108.2431946	752.3458362	17.66969218	0.20100624	0	-0.06347902	0	0	0	0	2.11411816	0
0.14166662	0	0	0	0.60000366	0	0.06202577	-104.0493626	763.1742422	22.01358925	0.20154453	0	-0.06398851	0	0	0	0	2.17061865	0
0.14999995	0	0	0	0.60184216	0	0.06151998	-100.8884342	774.452854	26.52249795	0.20220891	0	-0.06451699	0	0	0	0	2.23683521	0
0.15833329	0	0	0	0.60383057	0	0.06096646	-98.04071668	784.084173	30.41957555	0.20297847	0	-0.06503106	0	0	0	0	2.30863232	0
0.16666661	0	0	0	0.60606866	0	0.06032225	-94.53335456	790.7424412	33.18585147	0.20381274	0	-0.06552053	0	0	0	0	2.3730376	0
0.17499995	0	0	0	0.60859772	0	0.0595828	-89.88852145	794.3601485	34.7030476	0.20468738	0	-0.06599425	0	0	0	0	2.42006055	0
0.18333328	0	0	0	0.61138428	0	0.05877272	-84.12932337	795.5846186	35.2352256	0.20560333	0	-0.06648479	0	0	0	0	2.4510979	0
0.19166662	0	0	0	0.61439484	0	0.05793492	-77.35725461	794.558227	35.23454266	0.20657465	0	-0.06702956	0	0	0	0	2.46063477	0
0.19999996	0	0	0	0.61758203	0	0.05711399	-69.60080667	790.8346073	35.04969366	0.20764319	0	-0.06763952	0	0	0	0	2.43650049	0
0.20833328	0	0	0	0.62090186	0	0.05633961	-61.04479383	784.15744	34.67636116	0.20888385	0	-0.06829625	0	0	0	0	2.36100635	0
0.21666661	0	0	0	0.6242821	0	0.0556112	-52.20555111	774.839793	33.91918994	0.21039377	0	-0.06897765	0	0	0	0	2.22177246	0
0.22499995	0	0	0	0.62765753	0	0.05492503	-43.94491663	763.9507208	32.6155145	0.21226398	0	-0.06965963	0	0	0	0	2.01308142	0
0.23333329	0	0	0	0.63097968	0	0.05428273	-37.14680598	753.1146623	30.71644538	0.21454321	0	-0.07032918	0	0	0	0	1.73965088	0
0.24166662	0	0	0	0.63425922	0	0.05368966	-32.29352463	743.6937161	28.31189059	0.21720789	0	-0.07096566	0	0	0	0	1.41549316	0
0.24999996	0	0	0	0.63749915	0	0.05314888	-29.3479241	736.2235908	25.65013655	0.22019698	0	-0.07154195	0	0	0	0	1.05695947	0
0.25833327	0	0	0	0.640703	0	0.05266035	-27.9437386	730.4610046	23.07129797	0.22342711	0	-0.07205843	0	0	0	0	0.67532251	0
0.26666662	0	0	0	0.64387897	0	0.05222639	-27.54280168	725.9033757	20.88813884	0.22681984	0	-0.07253487	0	0	0	0	0.27888947	0
0.27499995	0	0	0	0.64704352	0	0.0518565	-27.6220289	722.1500655	19.26724332	0.23028557	0	-0.07297789	0	0	0	0	-0.1192237	0
0.2833333	0	0	0	0.65017615	0	0.05157748	-27.83333214	719.2560224	18.26443199	0.23376009	0	-0.07338048	0	0	0	0	-0.50435257	0
0.29166663	0	0	0	0.6532442	0	0.05143217	-27.99403228	717.4738195	17.82603696	0.23722386	0	-0.07373861	0	0	0	0	-0.86689703	0
0.29999995	0	0	0	0.6562182	0	0.05144444	-27.80603407	716.5779201	17.91515973	0.24067407	0	-0.07405336	0	0	0	0	-1.19963062	0
0.30833328	0	0	0	0.65912726	0	0.05160076	-26.89685442	715.6781842	18.60980856	0.24409755	0	-0.07432091	0	0	0	0	-1.50129785	0
0.3166666	0	0	0	0.66201416	0	0.0518659	-25.04661366	713.9203399	19.97158302	0.24749704	0	-0.07452626	0	0	0	0	-1.76810583	0
0.32499993	0	0	0	0.66492352	0	0.05217536	-22.22968549	710.945631	21.93816116	0.25089439	0	-0.07462886	0	0	0	0	-2.01241211	0
0.33333328	0	0	0	0.66786713	0	0.0524613	-18.5307224	706.9513611	24.29933354	0.25430159	0	-0.07459292	0	0	0	0	-2.25987769	0
0.34166661	0	0	0	0.67082214	0	0.05268072	-14.13553926	702.4339568	26.64572869	0.25770834	0	-0.07440587	0	0	0	0	-2.53586938	0
0.34999996	0	0	0	0.67373285	0	0.05280966	-9.34405913	698.3076025	28.53736463	0.26109839	0	-0.07406212	0	0	0	0	-2.86181836	0
0.35833329	0	0	0	0.67656812	0	0.05285255	-4.56375475	695.8716394	29.69541011	0.26447464	0	-0.07353884	0	0	0	0	-3.25797192	0
0.36666662	0	0	0	0.67927551	0	0.05283012	-0.1529805	696.498301	29.96608888	0.26786053	0	-0.07283989	0	0	0	0	-3.7444834	0
0.37499994	0	0	0	0.68178229	0	0.05278086	3.73744225	701.0764886	29.33957162	0.27126288	0	-0.07200365	0	0	0	0	-4.33250586	0
0.3833333	0	0	0	0.68400275	0	0.05273623	7.25613687	709.5840913	28.22946502	0.27465332	0	-0.07108861	0	0	0	0	-4.98961035	0
0.39166662	0	0	0	0.68591815	0	0.05269328	10.68586259	720.9581682	27.52378134	0.27801318	0	-0.0701635	0	0	0	0	-5.61479687	0
0.39999995	0	0	0	0.68757629	0	0.0526296	14.22591963	733.9463722	28.11300663	0.28133765	0	-0.06926854	0	0	0	0	-6.06788672	0
0.40833327	0	0	0	0.68908191	0	0.05251863	17.79849344	747.5060616	29.66764115	0.28462308	0	-0.06836217	0	0	0	0	-6.31222754	0
0.41666663	0	0	0	0.69056744	0	0.05233903	20.9597529	760.7950063	29.74376442	0.28790063	0	-0.06738857	0	0	0	0	-6.58535449	0
0.42499995	0	0	0	0.69219666	0	0.05207792	24.12779068	773.7933643	27.77247283	0.29118466	0	-0.06638979	0	0	0	0	-7.05217383	0
0.43333328	0	0	0	0.69410681	0	0.05172384	27.97981125	787.2541395	25.5191186	0.29441656	0	-0.06546111	0	0	0	0	-7.60481592	0
0.4416666	0	0	0	0.69637183	0	0.05126821	32.48657524	801.2633813	24.03011971	0.29758331	0	-0.06463347	0	0	0	0	-8.11109424	0
0.44999996	0	0	0	0.69896521	0	0.05069923	37.62907264	815.0616366	23.65662144	0.30069962	0	-0.06391063	0	0	0	0	-8.46245215	0
0.45833328	0	0	0	0.70178345	0	0.05003416	43.56986882	827.9634781	24.53959552	0.30376288	0	-0.06329491	0	0	0	0	-8.59417383	0
0.46666661	0	0	0	0.7046944	0	0.04934321	50.35530034	839.9295425	26.46537033	0.30675006	0	-0.06277099	0	0	0	0	-8.51103516	0
0.47499993	0	0	0	0.70762543	0	0.04870396	57.78280964	850.9426668	29.00103568	0.30965421	0	-0.06231228	0	0	0	0	-8.2557793	0
0.48333329	0	0	0	0.71057635	0	0.04816629	65.55689785	860.8468315	31.69481552	0.31247696	0	-0.06188482	0	0	0	0	-7.8782793	0
0.49166662	0	0	0	0.71366003	0	0.04773411	73.56624133	869.4522313	34.15740422	0.31518726	0	-0.06145797	0	0	0	0	-7.42672852	0
0.49999994	0	0	0	0.71710602	0	0.04737405	81.99329229	876.7573226	36.1186672	0.31767984	0	-0.06102199	0	0	0	0	-6.94051855	0
0.50833333	0	0	0	0.72123883	0	0.04711302	91.14553942	882.5564415	37.3929294	0.31983194	0	-0.06057509	0	0	0	0	-6.4565459	0
0.51666665	0	0	0	0.72646655	0	0.0472082	101.1974195	886.1533687	37.82698441	0.32159375	0	-0.06011333	0	0	0	0	-6.0123916	0
0.52499998	0	0	0	0.73336108	0	0.04808158	112.0391363	886.5239008	37.33085517	0.32300107	0	-0.05963579	0	0	0	0	-5.63809229	0
0.5333333	0	0	0	0.7417981	0	0.04982005	123.3011024	882.7861913	35.90103426	0.32414777	0	-0.05913799	0	0	0	0	-5.34827441	0
0.54166663	0	0	0	0.749586	0	0.05170976	134.4391272	874.2288667	33.587805	0.32514136	0	-0.05861586	0	0	0	0	-5.13613574	0
0.54999995	-7.80276183	50.10675643	1.02393703	0.75485303	0	0.05297917	144.8533116	860.0860284	30.5937808	0.3260715	0	-0.05807918	0	-0.06316959	0	0	-4.94740137	0
0.55833328	-14.1894972	124.9396954	4.44777749	0.75796356	0	0.0535697	153.992251	839.2360874	27.18270992	0.32698431	0	-0.05754558	0	-0.15092346	0	0	-4.69674902	0
0.5666666	-20.16848803	204.6315087	8.99523822	0.75995282	0	0.05376721	161.2547611	810.412333	23.52030042	0.3279028	0	-0.05704046	0	-0.24788628	0	0	-4.31028223	0
0.57499993	-27.66969502	263.1981784	11.70165024	0.76211145	0	0.05402909	166.1073897	772.813688	19.59276574	0.32883441	0	-0.05656853	0	-0.30603748	0	0	-3.78451465	0
0.58333325	-39.5641885	305.9467611	10.25187926	0.7656087	0	0.05474662	168.3411786	726.6647896	15.19283303	0.32974973	0	-0.05613643	0	-0.23764546	0	0	-3.19247485	0
0.59166658	-55.25067725	346.0802941	3.37221166	0.77146832	0	0.05618473	167.8772151	672.614273	10.16073732	0.33060529	0	-0.055752	0	0.04283922	0	0	-2.61933154	0
0.5999999	-72.83493458	396.6901473	-8.64192045	0.77963782	0	0.05812571	164.5249481	611.054023	4.70576992	0.33139471	0	-0.05542922	0	0.42752942	0	0	-2.10877515	0
0.60833329	-91.90130887	456.3611322	-20.95200457	0.78785236	0	0.05970683	157.945851	541.8251526	-0.7823725	0.33214203	0	-0.05515889	0	0.54727631	0	0	-1.6753429	0
0.61666662	-109.440513	508.208184	-26.65123856	0.7943316	0	0.06037658	147.5589331	464.4538289	-5.89690314	0.33293079	0	-0.05492019	0	0.18981992	0	0	-1.33362292	0
0.62499994	-122.0119674	548.0009689	-26.60197062	0.79927258	0	0.06035716	132.4675392	379.1278391	-10.20211785	0.33397412	0	-0.0546653	0	-0.40103491	0	0	-1.09630432	0
